<?xml version="1.0" encoding="utf-8"?>
<!-- Generator: Adobe Illustrator 18.0.0, SVG Export Plug-In . SVG Version: 6.00 Build 0)  -->
<!DOCTYPE svg PUBLIC "-//W3C//DTD SVG 1.1//EN" "http://www.w3.org/Graphics/SVG/1.1/DTD/svg11.dtd">
<svg version="1.1" xmlns="http://www.w3.org/2000/svg" xmlns:xlink="http://www.w3.org/1999/xlink" x="0px" y="0px"
	 viewBox="0 0 2881.8 3517.7" enable-background="new 0 0 2881.8 3517.7" xml:space="preserve">
<g id="plain_Myriad_pro_black">
	<g>
		<g>
			<g>
				
					<linearGradient id="SVGID_1_" gradientUnits="userSpaceOnUse" x1="0.1818" y1="797.3359" x2="1.1818" y2="797.3359" gradientTransform="matrix(432 0 0 460.8 97.2 -364550.4063)">
					<stop  offset="0" style="stop-color:#646464"/>
					<stop  offset="1" style="stop-color:#000000"/>
				</linearGradient>
				<path fill="url(#SVGID_1_)" d="M175.7,2890.8c0,0,432,43.2,432,115.2v-172.8c0,0,0-72-432-115.2v66.8V2890.8z"/>
				
					<linearGradient id="SVGID_2_" gradientUnits="userSpaceOnUse" x1="0.1818" y1="797.3359" x2="1.1818" y2="797.3359" gradientTransform="matrix(432 0 0 460.8 97.2 -364320)">
					<stop  offset="0" style="stop-color:#646464"/>
					<stop  offset="1" style="stop-color:#000000"/>
				</linearGradient>
				<path fill="url(#SVGID_2_)" d="M175.7,3121.2c0,0,432,43.2,432,115.2v-172.8c0,0,0-72-432-115.2V3121.2z"/>
			</g>
			
				<linearGradient id="SVGID_3_" gradientUnits="userSpaceOnUse" x1="0.1818" y1="786.0391" x2="1.1818" y2="786.0391" gradientTransform="matrix(432 0 0 -460.8 97.2 364953.625)">
				<stop  offset="0" style="stop-color:#A00000"/>
				<stop  offset="1" style="stop-color:#FF0000"/>
			</linearGradient>
			<path fill="url(#SVGID_3_)" d="M607.7,2602.8v172.8c0,0,0,72-432,115.2V2718C175.7,2718,607.7,2674.8,607.7,2602.8"/>
			
				<linearGradient id="SVGID_4_" gradientUnits="userSpaceOnUse" x1="0.1818" y1="786.0391" x2="1.1818" y2="786.0391" gradientTransform="matrix(432 0 0 -460.8 97.2 365184)">
				<stop  offset="0" style="stop-color:#A00000"/>
				<stop  offset="1" style="stop-color:#FF0000"/>
			</linearGradient>
			<path fill="url(#SVGID_4_)" d="M175.7,2948.4c0,0,432-43.2,432-115.2V3006c0,0,0,72-432,115.2V2948.4z"/>
			
				<linearGradient id="SVGID_5_" gradientUnits="userSpaceOnUse" x1="0.1818" y1="786.0391" x2="1.1818" y2="786.0391" gradientTransform="matrix(432 0 0 -460.8 97.2 365414.4063)">
				<stop  offset="0" style="stop-color:#A00000"/>
				<stop  offset="1" style="stop-color:#FF0000"/>
			</linearGradient>
			<path fill="url(#SVGID_5_)" d="M175.7,3351.6v-172.8c0,0,432-43.2,432-115.2v172.8C607.7,3236.4,607.7,3308.4,175.7,3351.6"/>
		</g>
		<g>
			<path fill="#231F20" d="M749,3225.3c9.5-42,18.6-82,27.8-122.2c32.6,9.4,63.5,22.2,95.6,26.4c32.2,4.2,65.7,1.6,98.2-1.8
				c18.5-1.9,31.3-16.2,33.2-36.4c1.8-19.3-8-33.3-24.1-41.6c-20-10.3-41-18.6-61.4-28.1c-27.4-12.7-55.9-23.8-81.8-39
				c-53.7-31.6-85.8-77.6-82.2-143.2c3.6-65.6,36.8-112.4,93.4-142.3c54.1-28.6,113-35.1,172.6-28.1c38.6,4.5,76,16.9,115.9,26.6
				c-11.9,45.5-22.3,84.9-32,122.2c-33.8-10.5-66.4-20.6-99.6-24.1c-23.1-2.4-48.3-0.1-70.4,6.9c-33,10.6-37,46.6-7.9,65.4
				c20.5,13.2,44.4,21,66.7,31.4c29.4,13.6,60.4,24.4,87.7,41.4c109.8,68.2,103.7,225.5-10.3,286.7c-59.2,31.8-123,39.2-188.7,33.5
				C836.6,3255,792.7,3245.8,749,3225.3z"/>
			<path fill="#231F20" d="M1995.3,3250.5c-40.6,0-89.9,0-133.8,0c-3.5-11.9-6.9-22.7-11.1-36.7c-33.4,33.3-72,46.4-116.1,46.2
				c-67.7-0.2-117.2-35.7-133.5-96.1c-17.1-63.5,9.7-127.6,66.6-160.9c46.6-27.3,98.1-33.7,150.3-37.6c6.1-0.5,12.3-0.8,18.5-1.2
				c-2.7-24.1-16.7-34.9-46-37.6c-47.7-4.3-92.4,6.1-138,29.3c-9.1-32.3-17.9-63.2-28.2-99.8c36.6-10.1,71.7-25,107.8-28.5
				c44.4-4.3,90.7-4.8,134.4,3.2c73.4,13.4,118,71.9,121.6,151.5c2.5,55.4,1.5,111,1.9,166.5
				C1989.8,3182,1990.1,3223.4,1995.3,3250.5z M1842.4,3060.3c-28-3.7-53.1,1.2-76.4,14.2c-16.3,9.1-25.5,24.7-21.1,42.8
				c2.8,11.7,10.7,25.8,20.4,31.4c29.9,17.1,71.8-4.8,76.7-39.1C1844.3,3093.8,1842.4,3077.4,1842.4,3060.3z"/>
			<path fill="#231F20" d="M2706.1,3249.9c-40.6,0-89.9,0-133.8,0c-3.5-11.9-6.9-22.7-11.1-36.7c-33.4,33.3-72,46.4-116.1,46.2
				c-67.7-0.2-117.2-35.7-133.5-96.1c-17.1-63.5,9.7-127.6,66.6-160.9c46.6-27.3,98.1-33.7,150.3-37.6c6.1-0.5,12.3-0.8,18.5-1.2
				c-2.7-24.1-16.7-34.9-46-37.6c-47.7-4.3-92.4,6.1-138,29.3c-9.1-32.3-17.9-63.2-28.2-99.8c36.6-10.1,71.7-25,107.8-28.5
				c44.4-4.3,90.7-4.8,134.4,3.2c73.4,13.4,118,71.9,121.6,151.5c2.5,55.4,1.5,111,1.9,166.5
				C2700.6,3181.5,2701,3222.9,2706.1,3249.9z M2553.2,3059.8c-28-3.7-53.1,1.2-76.4,14.2c-16.3,9.1-25.5,24.7-21.1,42.8
				c2.8,11.7,10.7,25.8,20.4,31.4c29.9,17.1,71.8-4.8,76.7-39.1C2555.1,3093.3,2553.2,3076.9,2553.2,3059.8z"/>
			<path fill="#231F20" d="M1533.5,2948.1c-55-10.8-107.4-21-145.6,30.8c-24,32.6-23.9,90.8,0.2,122.9
				c39.4,52.5,93.4,42.1,150.4,32.4c5.1,33.9,15.1,111.4,15.1,111.4s-0.4,0-6.8,2.3c-103.5,28.5-225.4,7.9-279.9-55.8
				c-56.4-66-63.2-143-38-222.7c25-79.1,84-122.5,162.3-139.4c50.1-10.8,100.8-9.6,150.6,4c4.7,1.3,12.7,3.6,12.7,3.6
				S1540.3,2913.9,1533.5,2948.1z"/>
			<path fill="#231F20" d="M2087.4,2645.6c50.2,0,98.8,0,148.5,0c0,201.3,0,401.7,0,603.9c-48.9,0-97.9,0-148.5,0
				C2087.4,3049.1,2087.4,2848.2,2087.4,2645.6z"/>
		</g>
	</g>
</g>
<g id="shadow_Myriad_pro_black">
	<g>
		<g>
			
				<image overflow="visible" opacity="0.45" width="2598" height="816" xlink:href="2924A1FC.png"  transform="matrix(1 0 0 1 138 1752.4)">
			</image>
			<g>
				<g>
					<g>
						<path fill="#231F20" d="M749,2396.5c9.5-42,18.6-82,27.8-122.2c32.6,9.4,63.5,22.2,95.6,26.4c32.2,4.2,65.7,1.6,98.2-1.8
							c18.5-1.9,31.3-16.2,33.2-36.4c1.8-19.3-8-33.3-24.1-41.6c-20-10.3-41-18.6-61.4-28.1c-27.4-12.7-55.9-23.8-81.8-39
							c-53.7-31.6-85.8-77.6-82.2-143.2c3.6-65.6,36.8-112.4,93.4-142.3c54.1-28.6,113-35.1,172.6-28.1c38.6,4.5,76,16.9,115.9,26.6
							c-11.9,45.5-22.3,84.9-32,122.2c-33.8-10.5-66.4-20.6-99.6-24.1c-23.1-2.4-48.3-0.1-70.4,6.9c-33,10.6-37,46.6-7.9,65.4
							c20.5,13.2,44.4,21,66.7,31.4c29.4,13.6,60.4,24.4,87.7,41.4c109.8,68.2,103.7,225.5-10.3,286.7
							c-59.2,31.8-123,39.2-188.7,33.5C836.6,2426.2,792.7,2417,749,2396.5z"/>
						<path fill="#231F20" d="M1995.3,2421.7c-40.6,0-89.9,0-133.8,0c-3.5-11.9-6.9-22.7-11.1-36.7c-33.4,33.3-72,46.4-116.1,46.2
							c-67.7-0.2-117.2-35.7-133.5-96.1c-17.1-63.5,9.7-127.6,66.6-160.9c46.6-27.3,98.1-33.7,150.3-37.6c6.1-0.5,12.3-0.8,18.5-1.2
							c-2.7-24.1-16.7-34.9-46-37.6c-47.7-4.3-92.4,6.1-138,29.3c-9.1-32.3-17.9-63.2-28.2-99.8c36.6-10.1,71.7-25,107.8-28.5
							c44.4-4.3,90.7-4.8,134.4,3.2c73.4,13.4,118,71.9,121.6,151.5c2.5,55.4,1.5,111,1.9,166.5
							C1989.8,2353.2,1990.1,2394.6,1995.3,2421.7z M1842.4,2231.5c-28-3.7-53.1,1.2-76.4,14.2c-16.3,9.1-25.5,24.7-21.1,42.8
							c2.8,11.7,10.7,25.8,20.4,31.4c29.9,17.1,71.8-4.8,76.7-39.1C1844.3,2265,1842.4,2248.6,1842.4,2231.5z"/>
						<path fill="#231F20" d="M2706.1,2421.1c-40.6,0-89.9,0-133.8,0c-3.5-11.9-6.9-22.7-11.1-36.7c-33.4,33.3-72,46.4-116.1,46.2
							c-67.7-0.2-117.2-35.7-133.5-96.1c-17.1-63.5,9.7-127.6,66.6-160.9c46.6-27.3,98.1-33.7,150.3-37.6c6.1-0.5,12.3-0.8,18.5-1.2
							c-2.7-24.1-16.7-34.9-46-37.6c-47.7-4.3-92.4,6.1-138,29.3c-9.1-32.3-17.9-63.2-28.2-99.8c36.6-10.1,71.7-25,107.8-28.5
							c44.4-4.3,90.7-4.8,134.4,3.2c73.4,13.4,118,71.9,121.6,151.5c2.5,55.4,1.5,111,1.9,166.5
							C2700.6,2352.7,2701,2394.1,2706.1,2421.1z M2553.2,2231c-28-3.7-53.1,1.2-76.4,14.2c-16.3,9.1-25.5,24.7-21.1,42.8
							c2.8,11.7,10.7,25.8,20.4,31.4c29.9,17.1,71.8-4.8,76.7-39.1C2555.1,2264.5,2553.2,2248.1,2553.2,2231z"/>
						<path fill="#231F20" d="M1533.5,2119.3c-55-10.8-107.4-21-145.6,30.8c-24,32.6-23.9,90.8,0.2,122.9
							c39.4,52.5,93.4,42.1,150.4,32.4c5.1,33.9,15.1,111.4,15.1,111.4s-0.4,0-6.8,2.3c-103.5,28.5-225.4,7.9-279.9-55.8
							c-56.4-66-63.2-143-38-222.7c25-79.1,84-122.5,162.3-139.4c50.1-10.8,100.8-9.6,150.6,4c4.7,1.3,12.7,3.6,12.7,3.6
							S1540.3,2085.1,1533.5,2119.3z"/>
						<path fill="#231F20" d="M2087.4,1816.8c50.2,0,98.8,0,148.5,0c0,201.3,0,401.7,0,603.9c-48.9,0-97.9,0-148.5,0
							C2087.4,2220.3,2087.4,2019.4,2087.4,1816.8z"/>
					</g>
					<g>
						<g>
							
								<linearGradient id="SVGID_6_" gradientUnits="userSpaceOnUse" x1="0.1818" y1="795.5374" x2="1.1818" y2="795.5374" gradientTransform="matrix(432 0 0 460.8 97.2 -364550.4063)">
								<stop  offset="0" style="stop-color:#646464"/>
								<stop  offset="1" style="stop-color:#000000"/>
							</linearGradient>
							<path fill="url(#SVGID_6_)" d="M175.7,2062c0,0,432,43.2,432,115.2v-172.8c0,0,0-72-432-115.2v66.8V2062z"/>
							
								<linearGradient id="SVGID_7_" gradientUnits="userSpaceOnUse" x1="0.1818" y1="795.5374" x2="1.1818" y2="795.5374" gradientTransform="matrix(432 0 0 460.8 97.2 -364320)">
								<stop  offset="0" style="stop-color:#646464"/>
								<stop  offset="1" style="stop-color:#000000"/>
							</linearGradient>
							<path fill="url(#SVGID_7_)" d="M175.7,2292.4c0,0,432,43.2,432,115.2v-172.8c0,0,0-72-432-115.2V2292.4z"/>
						</g>
						
							<linearGradient id="SVGID_8_" gradientUnits="userSpaceOnUse" x1="0.1818" y1="787.8376" x2="1.1818" y2="787.8376" gradientTransform="matrix(432 0 0 -460.8 97.2 364953.625)">
							<stop  offset="0" style="stop-color:#A00000"/>
							<stop  offset="1" style="stop-color:#FF0000"/>
						</linearGradient>
						<path fill="url(#SVGID_8_)" d="M607.7,1774v172.8c0,0,0,72-432,115.2v-172.8C175.7,1889.2,607.7,1846,607.7,1774"/>
						
							<linearGradient id="SVGID_9_" gradientUnits="userSpaceOnUse" x1="0.1818" y1="787.8376" x2="1.1818" y2="787.8376" gradientTransform="matrix(432 0 0 -460.8 97.2 365184)">
							<stop  offset="0" style="stop-color:#A00000"/>
							<stop  offset="1" style="stop-color:#FF0000"/>
						</linearGradient>
						<path fill="url(#SVGID_9_)" d="M175.7,2119.6c0,0,432-43.2,432-115.2v172.8c0,0,0,72-432,115.2V2119.6z"/>
						
							<linearGradient id="SVGID_10_" gradientUnits="userSpaceOnUse" x1="0.1818" y1="787.8376" x2="1.1818" y2="787.8376" gradientTransform="matrix(432 0 0 -460.8 97.2 365414.4063)">
							<stop  offset="0" style="stop-color:#A00000"/>
							<stop  offset="1" style="stop-color:#FF0000"/>
						</linearGradient>
						<path fill="url(#SVGID_10_)" d="M175.7,2522.8V2350c0,0,432-43.2,432-115.2v172.8C607.7,2407.6,607.7,2479.6,175.7,2522.8"/>
					</g>
				</g>
			</g>
		</g>
	</g>
</g>
<g id="plain_museo-slab">
	<g>
		<g id="Text_1_">
			<path fill="#231F20" d="M1038.5,1220.9c-8.1,0-13.8,0-19.5,0c-29.5,0-59,0-90.8,0c0-10-0.6-18.3,0.1-26.4
				c1.8-18.9-6.7-31.7-21.7-34.2c-21.3-3.6-43.2-4-64.8-3c-12.7,0.6-22.6,10.2-25.1,25.6c-2.6,15.7,1,29.7,12.3,40
				c16,14.7,30.7,23.3,53.5,31.6c42.1,15.2,74.4,30.3,109.3,51.4c86.7,52.3,77.9,202.5,6.2,255.6c-49,36.2-103.4,47-160.9,41.7
				c-37.9-3.4-73.9-14.3-106.6-37.2c-33-23.2-51.2-55.3-50.4-99.7c0.4-21.9,0.1-43.8,0.1-66.7c36.7,0,71.9,0,109.5,0
				c0,11.5,0.3,22.9-0.1,34.2c-0.5,18.4,7.2,31.2,21.6,38.6c31.6,16.3,65,19.2,96.1,2.8c26.9-14.2,29.9-51.8,6.2-68
				c-19-15-39.1-23.3-61.4-31.9c-35.4-13.6-68.3-32.1-100.3-52.4c-50.3-32.1-64.4-85.6-59.3-146.7c5.1-62.2,34.8-105.1,87.2-125.9
				c67.1-26.6,134.4-23.9,199.9,6.6c39.8,18.6,63.7,50.5,59.1,102.6C1037.1,1178.5,1038.5,1198.1,1038.5,1220.9z"/>
			<path fill="#231F20" d="M1866.2,1495.2c0,34.2,0,67.8,0,101.2c-37.5,0-74,1.5-110.4-0.5c-26.1-1.4-35.6-15.5-40.7-52.6
				c-17.9,27.5-39.9,45.8-67.9,54.9c-30.1,9.9-59.6,8.2-88.3-5c-41.6-19.2-63.7-54.3-65.6-104.7c-1.8-50.8,18.7-87.5,59.1-109.3
				c39.6-21.4,82.4-29.1,126.1-31.3c8.6-0.4,17.2-0.1,25.5-0.1c6.4-34.9-8.8-56.4-39.4-58.5c-33.6-2.3-63.7,10.1-92.9,26.9
				c-4.6,2.6-9,5.7-15.5,9.9c-13.7-28.9-27-57.2-40.9-86.6c22.5-20.7,48.7-30.6,75.2-38.8c42.9-13.4,86.3-17.3,130.3-5.3
				c68.1,18.6,103.8,68.5,104.6,147.6c0.4,39.5,0,79,0.1,118.6c0,33.4,0.2,33.1,29.5,33.7
				C1858.4,1495.3,1861.7,1495.1,1866.2,1495.2z M1705.8,1422.2c-27.9,0-54.1,2.5-77.8,18.6c-13.1,8.9-17.1,22.8-13.4,38.6
				c3.9,16.4,14.8,23.7,29.8,24.1C1678.5,1504.4,1711.3,1462.4,1705.8,1422.2z"/>
			<path fill="#231F20" d="M2154.1,1238.8c32.7-25.6,68-37.8,104.3-45.7c36.8-8,73.9-6.9,110.3,4.2c59.6,18.2,94.3,69.2,95.4,140.4
				c0.7,40.8,0.1,81.7,0.1,122.6c0,34.8,0.1,35,30.5,35.4c2.9,0,5.8,0.3,10,0.5c0,32.8,0,65.4,0,99.6c-37.5,0-75.1,2-112.4-0.7
				c-25.8-1.9-34.6-16.9-37.2-51.7c-3.8,4.8-6.6,8.2-9.2,11.7c-44.3,60.8-135.3,66.1-184.9,10.9c-51.7-57.6-33-157.2,36.5-190.3
				c38.1-18.2,78.6-26.2,120-27.9c8.6-0.4,17.2-0.1,25.6-0.1c6.5-34.9-8.5-56.3-39.2-58.5c-32.4-2.3-61.5,9.3-89.8,25
				c-5.7,3.1-11.1,6.8-18.9,11.6C2181.6,1297.2,2168.2,1268.9,2154.1,1238.8z M2344.2,1422.7c-27.1-0.8-53.6,1.9-77.5,18.6
				c-12,8.4-16.8,21.2-13.5,36.7c3.1,14.7,12.1,23.2,25.4,25.3C2313.8,1508.8,2351,1464.1,2344.2,1422.7z"/>
			<path fill="#231F20" d="M1457.8,1541.9c-77.2,75.2-201.9,82.7-282.4,19.2c-64.6-50.9-86.8-122-72-206.1
				c14.6-83.2,62.4-136.1,135-158.4c51-15.7,102.4-11.1,151.7,10.5c47.2,20.6,62.7,47.6,62.7,103.6c0,14.1,0,28.1,0,43.1
				c-34.6,0-73.8,0-106.2,0c-0.1-2.3-0.2-3.9-0.2-5.7c0.4-37.2-7-46.6-40-47.3c-57-1.1-86.1,28.6-86.9,89.1
				c-0.9,62.4,32.2,100.5,86.6,101.9c42,1.1,78.1-15.2,112.1-43.2C1431.7,1480.5,1444.8,1511.2,1457.8,1541.9z"/>
			<path fill="#231F20" d="M1879.8,1041c55.4,0,109.3,0,166.2,0c0,7.9,0,15.3,0,22.8c0,121.3,0,242.5,0,363.8c0,3.2,0,6.5,0,9.7
				c0.5,55.3,10.7,54.5,48.2,55.6c0.5,32.4,0.5,74.4,0.4,106.8c-55.2,1.1-75.8,1.4-106-12.5c-42.9-19.7-56.4-60.6-60.2-107.3
				c-1.8-21.9-0.9-44.1-0.9-66.1c-0.1-83,0-166,0-249c0-7,0-14,0-22.6c-16.5,0-31.3,0-47.5,0
				C1879.8,1107.9,1879.8,1075.3,1879.8,1041z"/>
		</g>
		<g>
			
				<linearGradient id="SVGID_11_" gradientUnits="userSpaceOnUse" x1="0.1818" y1="793.7387" x2="1.1818" y2="793.7387" gradientTransform="matrix(432 0 0 460.8 97.2 -364550.4063)">
				<stop  offset="0" style="stop-color:#646464"/>
				<stop  offset="1" style="stop-color:#000000"/>
			</linearGradient>
			<path fill="url(#SVGID_11_)" d="M175.7,1233.2c0,0,432,43.2,432,115.2v-172.8c0,0,0-72-432-115.2v66.8V1233.2z"/>
			
				<linearGradient id="SVGID_12_" gradientUnits="userSpaceOnUse" x1="0.1818" y1="793.7387" x2="1.1818" y2="793.7387" gradientTransform="matrix(432 0 0 460.8 97.2 -364320)">
				<stop  offset="0" style="stop-color:#646464"/>
				<stop  offset="1" style="stop-color:#000000"/>
			</linearGradient>
			<path fill="url(#SVGID_12_)" d="M175.7,1463.6c0,0,432,43.2,432,115.2V1406c0,0,0-72-432-115.2V1463.6z"/>
			
				<linearGradient id="SVGID_13_" gradientUnits="userSpaceOnUse" x1="0.1818" y1="789.6363" x2="1.1818" y2="789.6363" gradientTransform="matrix(432 0 0 -460.8 97.2 364953.625)">
				<stop  offset="0" style="stop-color:#A00000"/>
				<stop  offset="1" style="stop-color:#FF0000"/>
			</linearGradient>
			<path fill="url(#SVGID_13_)" d="M175.7,1060.4c0,0,432-43.2,432-115.2V1118c0,0,0,72-432,115.2V1060.4z"/>
			
				<linearGradient id="SVGID_14_" gradientUnits="userSpaceOnUse" x1="0.1818" y1="789.6363" x2="1.1818" y2="789.6363" gradientTransform="matrix(432 0 0 -460.8 97.2 365184)">
				<stop  offset="0" style="stop-color:#A00000"/>
				<stop  offset="1" style="stop-color:#FF0000"/>
			</linearGradient>
			<path fill="url(#SVGID_14_)" d="M175.7,1290.8c0,0,432-43.2,432-115.2v172.8c0,0,0,72-432,115.2V1290.8z"/>
			
				<linearGradient id="SVGID_15_" gradientUnits="userSpaceOnUse" x1="0.1818" y1="789.6363" x2="1.1818" y2="789.6363" gradientTransform="matrix(432 0 0 -460.8 97.2 365414.4063)">
				<stop  offset="0" style="stop-color:#A00000"/>
				<stop  offset="1" style="stop-color:#FF0000"/>
			</linearGradient>
			<path fill="url(#SVGID_15_)" d="M175.7,1521.2c0,0,432-43.2,432-115.2v172.8c0,0,0,72-432,115.2V1521.2z"/>
		</g>
	</g>
</g>
<g id="shadow_museo-slab">
	<g>
		<g id="Text_3_">
			
				<image overflow="visible" opacity="0.45" width="1892" height="640" xlink:href="2924A1FD.png"  transform="matrix(1 0 0 1 642 181.4)">
			</image>
			<g>
				<g>
					<path fill="#231F20" d="M1038.5,392.1c-8.1,0-13.8,0-19.5,0c-29.5,0-59,0-90.8,0c0-10-0.6-18.3,0.1-26.4
						c1.8-18.9-6.7-31.7-21.7-34.2c-21.3-3.6-43.2-4-64.8-3c-12.7,0.6-22.6,10.2-25.1,25.6c-2.6,15.7,1,29.7,12.3,40
						c16,14.7,30.7,23.3,53.5,31.6c42.1,15.2,74.4,30.3,109.3,51.4c86.7,52.3,77.9,202.5,6.2,255.6c-49,36.2-103.4,47-160.9,41.7
						c-37.9-3.4-73.9-14.3-106.6-37.2c-33-23.2-51.2-55.3-50.4-99.7c0.4-21.9,0.1-43.8,0.1-66.7c36.7,0,71.9,0,109.5,0
						c0,11.5,0.3,22.9-0.1,34.2c-0.5,18.4,7.2,31.2,21.6,38.6c31.6,16.3,65,19.2,96.1,2.8c26.9-14.2,29.9-51.8,6.2-68
						c-19-15-39.1-23.3-61.4-31.9c-35.4-13.6-68.3-32.1-100.3-52.4c-50.3-32.1-64.4-85.6-59.3-146.7c5.1-62.2,34.8-105.1,87.2-125.9
						c67.1-26.6,134.4-23.9,199.9,6.6c39.8,18.6,63.7,50.5,59.1,102.6C1037.1,349.7,1038.5,369.3,1038.5,392.1z"/>
					<path fill="#231F20" d="M1866.2,666.4c0,34.2,0,67.8,0,101.2c-37.5,0-74,1.5-110.4-0.5c-26.1-1.4-35.6-15.5-40.7-52.6
						c-17.9,27.5-39.9,45.8-67.9,54.9c-30.1,9.9-59.6,8.2-88.3-5c-41.6-19.2-63.7-54.3-65.6-104.7c-1.8-50.8,18.7-87.5,59.1-109.3
						c39.6-21.4,82.4-29.1,126.1-31.3c8.6-0.4,17.2-0.1,25.5-0.1c6.4-34.9-8.8-56.4-39.4-58.5c-33.6-2.3-63.7,10.1-92.9,26.9
						c-4.6,2.6-9,5.7-15.5,9.9c-13.7-28.9-27-57.2-40.9-86.6c22.5-20.7,48.7-30.6,75.2-38.8c42.9-13.4,86.3-17.3,130.3-5.3
						c68.1,18.6,103.8,68.5,104.6,147.6c0.4,39.5,0,79,0.1,118.6c0,33.4,0.2,33.1,29.5,33.7C1858.4,666.5,1861.7,666.3,1866.2,666.4
						z M1705.8,593.4c-27.9,0-54.1,2.5-77.8,18.6c-13.1,8.9-17.1,22.8-13.4,38.6c3.9,16.4,14.8,23.7,29.8,24.1
						C1678.5,675.6,1711.3,633.6,1705.8,593.4z"/>
					<path fill="#231F20" d="M2154.1,410c32.7-25.6,68-37.7,104.3-45.7c36.8-8,73.9-6.9,110.3,4.2c59.6,18.2,94.3,69.2,95.4,140.4
						c0.7,40.8,0.1,81.7,0.1,122.6c0,34.8,0.1,35,30.5,35.4c2.9,0,5.8,0.3,10,0.5c0,32.8,0,65.4,0,99.6c-37.5,0-75.1,2-112.4-0.7
						c-25.8-1.9-34.6-16.9-37.2-51.7c-3.8,4.8-6.6,8.2-9.2,11.7c-44.3,60.8-135.3,66.1-184.9,10.9c-51.7-57.6-33-157.2,36.5-190.3
						c38.1-18.2,78.6-26.2,120-27.9c8.6-0.4,17.2-0.1,25.6-0.1c6.5-34.9-8.5-56.3-39.2-58.5c-32.4-2.3-61.5,9.3-89.8,25
						c-5.7,3.1-11.1,6.8-18.9,11.6C2181.6,468.4,2168.2,440.1,2154.1,410z M2344.2,593.9c-27.1-0.8-53.6,1.9-77.5,18.6
						c-12,8.4-16.8,21.2-13.5,36.7c3.1,14.7,12.1,23.2,25.4,25.3C2313.8,680,2351,635.3,2344.2,593.9z"/>
					<path fill="#231F20" d="M1457.8,713.1c-77.2,75.2-201.9,82.7-282.4,19.2c-64.6-50.9-86.8-122-72-206.1
						c14.6-83.2,62.4-136.1,135-158.4c51-15.7,102.4-11.1,151.7,10.5c47.2,20.6,62.7,47.6,62.7,103.6c0,14.1,0,28.1,0,43.1
						c-34.6,0-73.8,0-106.2,0c-0.1-2.3-0.2-3.9-0.2-5.7c0.4-37.2-7-46.6-40-47.3c-57-1.1-86.1,28.6-86.9,89.1
						c-0.9,62.4,32.2,100.5,86.6,101.9c42,1.1,78.1-15.2,112.1-43.2C1431.7,651.7,1444.8,682.4,1457.8,713.1z"/>
					<path fill="#231F20" d="M1879.8,212.2c55.4,0,109.3,0,166.2,0c0,7.9,0,15.3,0,22.8c0,121.3,0,242.5,0,363.8c0,3.2,0,6.5,0,9.7
						c0.5,55.3,10.7,54.5,48.2,55.6c0.5,32.4,0.5,74.4,0.4,106.8c-55.2,1.1-75.8,1.4-106-12.5c-42.9-19.7-56.4-60.6-60.2-107.3
						c-1.8-21.9-0.9-44.1-0.9-66.1c-0.1-83,0-166,0-249c0-7,0-14,0-22.6c-16.5,0-31.3,0-47.5,0
						C1879.8,279.1,1879.8,246.5,1879.8,212.2z"/>
				</g>
			</g>
		</g>
		<g id="Logo_2_">
			
				<image overflow="visible" opacity="0.45" width="499" height="815" xlink:href="2924A1FB.png"  transform="matrix(1 0 0 1 138 95.4)">
			</image>
			<g>
				<g>
					<g>
						<g>
							
								<linearGradient id="SVGID_16_" gradientUnits="userSpaceOnUse" x1="0.1818" y1="791.9401" x2="1.1818" y2="791.9401" gradientTransform="matrix(432 0 0 460.8 97.2 -364550.4063)">
								<stop  offset="0" style="stop-color:#AFAFAF"/>
								<stop  offset="1" style="stop-color:#7D7D7D"/>
							</linearGradient>
							<path fill="url(#SVGID_16_)" d="M175.7,404.4c0,0,432,43.2,432,115.2V346.8c0,0,0-72-432-115.2V404.4z"/>
							
								<linearGradient id="SVGID_17_" gradientUnits="userSpaceOnUse" x1="0.1818" y1="791.9401" x2="1.1818" y2="791.9401" gradientTransform="matrix(432 0 0 460.8 97.2 -364320)">
								<stop  offset="0" style="stop-color:#AFAFAF"/>
								<stop  offset="1" style="stop-color:#7D7D7D"/>
							</linearGradient>
							<path fill="url(#SVGID_17_)" d="M175.7,634.8c0,0,432,43.2,432,115.2V577.2c0,0,0-72-432-115.2V634.8z"/>
						</g>
					</g>
					<g>
						<g>
							
								<linearGradient id="SVGID_18_" gradientUnits="userSpaceOnUse" x1="0.1818" y1="791.4349" x2="1.1818" y2="791.4349" gradientTransform="matrix(432 0 0 -460.8 97.2 364953.625)">
								<stop  offset="0" style="stop-color:#AFAFAF"/>
								<stop  offset="1" style="stop-color:#7D7D7D"/>
							</linearGradient>
							<path fill="url(#SVGID_18_)" d="M175.7,231.6c0,0,432-43.2,432-115.2v172.8c0,0,0,72-432,115.2V231.6z"/>
							
								<linearGradient id="SVGID_19_" gradientUnits="userSpaceOnUse" x1="0.1818" y1="791.4349" x2="1.1818" y2="791.4349" gradientTransform="matrix(432 0 0 -460.8 97.2 365184)">
								<stop  offset="0" style="stop-color:#AFAFAF"/>
								<stop  offset="1" style="stop-color:#7D7D7D"/>
							</linearGradient>
							<path fill="url(#SVGID_19_)" d="M175.7,462c0,0,432-43.2,432-115.2v172.8c0,0,0,72-432,115.2V462z"/>
							
								<linearGradient id="SVGID_20_" gradientUnits="userSpaceOnUse" x1="0.1818" y1="791.4349" x2="1.1818" y2="791.4349" gradientTransform="matrix(432 0 0 -460.8 97.2 365414.4063)">
								<stop  offset="0" style="stop-color:#AFAFAF"/>
								<stop  offset="1" style="stop-color:#7D7D7D"/>
							</linearGradient>
							<path fill="url(#SVGID_20_)" d="M175.7,692.4c0,0,432-43.2,432-115.2V750c0,0,0,72-432,115.2V692.4z"/>
						</g>
					</g>
					<g>
						
							<linearGradient id="SVGID_21_" gradientUnits="userSpaceOnUse" x1="0.1818" y1="791.9401" x2="1.1818" y2="791.9401" gradientTransform="matrix(432 0 0 460.8 97.2 -364550.4063)">
							<stop  offset="0" style="stop-color:#646464"/>
							<stop  offset="1" style="stop-color:#000000"/>
						</linearGradient>
						<path fill="url(#SVGID_21_)" d="M175.7,404.4c0,0,432,43.2,432,115.2V346.8c0,0,0-72-432-115.2V404.4z"/>
						
							<linearGradient id="SVGID_22_" gradientUnits="userSpaceOnUse" x1="0.1818" y1="791.9401" x2="1.1818" y2="791.9401" gradientTransform="matrix(432 0 0 460.8 97.2 -364320)">
							<stop  offset="0" style="stop-color:#646464"/>
							<stop  offset="1" style="stop-color:#000000"/>
						</linearGradient>
						<path fill="url(#SVGID_22_)" d="M175.7,634.8c0,0,432,43.2,432,115.2V577.2c0,0,0-72-432-115.2V634.8z"/>
					</g>
					<g>
						
							<linearGradient id="SVGID_23_" gradientUnits="userSpaceOnUse" x1="0.1818" y1="791.4349" x2="1.1818" y2="791.4349" gradientTransform="matrix(432 0 0 -460.8 97.2 364953.625)">
							<stop  offset="0" style="stop-color:#A00000"/>
							<stop  offset="1" style="stop-color:#FF0000"/>
						</linearGradient>
						<path fill="url(#SVGID_23_)" d="M175.7,231.6c0,0,432-43.2,432-115.2v172.8c0,0,0,72-432,115.2V231.6z"/>
						
							<linearGradient id="SVGID_24_" gradientUnits="userSpaceOnUse" x1="0.1818" y1="791.4349" x2="1.1818" y2="791.4349" gradientTransform="matrix(432 0 0 -460.8 97.2 365184)">
							<stop  offset="0" style="stop-color:#A00000"/>
							<stop  offset="1" style="stop-color:#FF0000"/>
						</linearGradient>
						<path fill="url(#SVGID_24_)" d="M175.7,462c0,0,432-43.2,432-115.2v172.8c0,0,0,72-432,115.2V462z"/>
						
							<linearGradient id="SVGID_25_" gradientUnits="userSpaceOnUse" x1="0.1818" y1="791.4349" x2="1.1818" y2="791.4349" gradientTransform="matrix(432 0 0 -460.8 97.2 365414.4063)">
							<stop  offset="0" style="stop-color:#A00000"/>
							<stop  offset="1" style="stop-color:#FF0000"/>
						</linearGradient>
						<path fill="url(#SVGID_25_)" d="M175.7,692.4c0,0,432-43.2,432-115.2V750c0,0,0,72-432,115.2V692.4z"/>
					</g>
				</g>
			</g>
		</g>
	</g>
</g>
</svg>
